<svg width="244" height="158" viewBox="0 0 244 158" fill="none" xmlns="http://www.w3.org/2000/svg">
<path d="M121.995 130.642C103.481 88.7914 32.1406 78.7507 5.78756 110.152C19.8116 148.672 90.2836 163.637 121.995 130.642Z" fill="#0A57C2" stroke="white" stroke-width="10"/>
<path d="M121.788 130.642C153.499 163.637 223.971 148.672 237.995 110.152C211.642 78.7507 140.302 88.7914 121.788 130.642Z" fill="#0A57C2" stroke="white" stroke-width="10"/>
<path d="M121.934 131.934C130.773 87.0326 78.0933 37.8887 38.4953 48.4953C27.8887 88.0932 77.0326 140.773 121.934 131.934Z" fill="#0D6CF2" stroke="white" stroke-width="10"/>
<path d="M121.495 131.934C166.397 140.773 215.54 88.0933 204.934 48.4953C165.336 37.8887 112.656 87.0326 121.495 131.934Z" fill="#0D6CF2" stroke="white" stroke-width="10"/>
<path d="M121.5 132C163.538 104.771 160.772 27.8898 121.5 6C82.2279 27.8898 79.4623 104.771 121.5 132Z" fill="#3D8AF5" stroke="white" stroke-width="10"/>
<circle cx="122" cy="132" r="14" fill="#3D8AF5" stroke="white" stroke-width="12"/>
</svg>
